<?xml version="1.0" encoding="utf-8" standalone="no"?>
<!DOCTYPE svg PUBLIC "-//W3C//DTD SVG 1.1//EN"
  "http://www.w3.org/Graphics/SVG/1.1/DTD/svg11.dtd">
<svg xmlns:xlink="http://www.w3.org/1999/xlink" width="648pt" height="259.2pt" viewBox="0 0 648 259.2" xmlns="http://www.w3.org/2000/svg" version="1.1">
 <metadata>
  <rdf:RDF xmlns:dc="http://purl.org/dc/elements/1.1/" xmlns:cc="http://creativecommons.org/ns#" xmlns:rdf="http://www.w3.org/1999/02/22-rdf-syntax-ns#">
   <cc:Work>
    <dc:type rdf:resource="http://purl.org/dc/dcmitype/StillImage"/>
    <dc:date>2026-08-19T10:23:53.738797</dc:date>
    <dc:format>image/svg+xml</dc:format>
    <dc:creator>
     <cc:Agent>
      <dc:title>Matplotlib v3.10.1, https://matplotlib.org/</dc:title>
     </cc:Agent>
    </dc:creator>
   </cc:Work>
  </rdf:RDF>
 </metadata>
 <defs>
  <style type="text/css">*{stroke-linejoin: round; stroke-linecap: butt}</style>
 </defs>
 <g id="figure_1">
  <g id="patch_1">
   <path d="M 0 259.2 
L 648 259.2 
L 648 0 
L 0 0 
z
" style="fill: #ffffff"/>
  </g>
  <g id="axes_1">
   <g id="patch_2">
    <path d="M 45.36 225.504 
L 635.04 225.504 
L 635.04 41.472 
L 45.36 41.472 
z
" style="fill: #ffffff"/>
   </g>
   <g id="patch_3">
    <path d="M 72.163636 225.504 
L 92.018182 225.504 
L 92.018182 225.504 
L 72.163636 225.504 
z
" clip-path="url(#p5561ab500c)" style="fill: url(#he9e3e3b132); opacity: 0.15; stroke: #1f77b4; stroke-linejoin: miter"/>
   </g>
   <g id="patch_4">
    <path d="M 127.315152 225.504 
L 147.169697 225.504 
L 147.169697 225.504 
L 127.315152 225.504 
z
" clip-path="url(#p5561ab500c)" style="fill: url(#he9e3e3b132); opacity: 0.15; stroke: #1f77b4; stroke-linejoin: miter"/>
   </g>
   <g id="patch_5">
    <path d="M 182.466667 225.504 
L 202.321212 225.504 
L 202.321212 225.504 
L 182.466667 225.504 
z
" clip-path="url(#p5561ab500c)" style="fill: url(#he9e3e3b132); opacity: 0.15; stroke: #1f77b4; stroke-linejoin: miter"/>
   </g>
   <g id="patch_6">
    <path d="M 237.618182 225.504 
L 257.472727 225.504 
L 257.472727 225.504 
L 237.618182 225.504 
z
" clip-path="url(#p5561ab500c)" style="fill: url(#he9e3e3b132); opacity: 0.15; stroke: #1f77b4; stroke-linejoin: miter"/>
   </g>
   <g id="patch_7">
    <path d="M 292.769697 225.504 
L 312.624242 225.504 
L 312.624242 225.504 
L 292.769697 225.504 
z
" clip-path="url(#p5561ab500c)" style="fill: url(#he9e3e3b132); opacity: 0.15; stroke: #1f77b4; stroke-linejoin: miter"/>
   </g>
   <g id="patch_8">
    <path d="M 347.921212 225.504 
L 367.775758 225.504 
L 367.775758 225.504 
L 347.921212 225.504 
z
" clip-path="url(#p5561ab500c)" style="fill: url(#he9e3e3b132); opacity: 0.15; stroke: #1f77b4; stroke-linejoin: miter"/>
   </g>
   <g id="patch_9">
    <path d="M 403.072727 225.504 
L 422.927273 225.504 
L 422.927273 225.504 
L 403.072727 225.504 
z
" clip-path="url(#p5561ab500c)" style="fill: url(#he9e3e3b132); opacity: 0.15; stroke: #1f77b4; stroke-linejoin: miter"/>
   </g>
   <g id="patch_10">
    <path d="M 458.224242 225.504 
L 478.078788 225.504 
L 478.078788 225.504 
L 458.224242 225.504 
z
" clip-path="url(#p5561ab500c)" style="fill: url(#he9e3e3b132); opacity: 0.15; stroke: #1f77b4; stroke-linejoin: miter"/>
   </g>
   <g id="patch_11">
    <path d="M 513.375758 225.504 
L 533.230303 225.504 
L 533.230303 225.504 
L 513.375758 225.504 
z
" clip-path="url(#p5561ab500c)" style="fill: url(#he9e3e3b132); opacity: 0.15; stroke: #1f77b4; stroke-linejoin: miter"/>
   </g>
   <g id="patch_12">
    <path d="M 568.527273 225.504 
L 588.381818 225.504 
L 588.381818 225.504 
L 568.527273 225.504 
z
" clip-path="url(#p5561ab500c)" style="fill: url(#he9e3e3b132); opacity: 0.15; stroke: #1f77b4; stroke-linejoin: miter"/>
   </g>
   <g id="patch_13">
    <path d="M 92.018182 225.504 
L 111.872727 225.504 
L 111.872727 225.504 
L 92.018182 225.504 
z
" clip-path="url(#p5561ab500c)" style="fill: url(#hbb1a7315e7); opacity: 0.15; stroke: #d62728; stroke-linejoin: miter"/>
   </g>
   <g id="patch_14">
    <path d="M 147.169697 225.504 
L 167.024242 225.504 
L 167.024242 225.504 
L 147.169697 225.504 
z
" clip-path="url(#p5561ab500c)" style="fill: url(#hbb1a7315e7); opacity: 0.15; stroke: #d62728; stroke-linejoin: miter"/>
   </g>
   <g id="patch_15">
    <path d="M 202.321212 225.504 
L 222.175758 225.504 
L 222.175758 225.504 
L 202.321212 225.504 
z
" clip-path="url(#p5561ab500c)" style="fill: url(#hbb1a7315e7); opacity: 0.15; stroke: #d62728; stroke-linejoin: miter"/>
   </g>
   <g id="patch_16">
    <path d="M 257.472727 225.504 
L 277.327273 225.504 
L 277.327273 225.504 
L 257.472727 225.504 
z
" clip-path="url(#p5561ab500c)" style="fill: url(#hbb1a7315e7); opacity: 0.15; stroke: #d62728; stroke-linejoin: miter"/>
   </g>
   <g id="patch_17">
    <path d="M 312.624242 225.504 
L 332.478788 225.504 
L 332.478788 225.504 
L 312.624242 225.504 
z
" clip-path="url(#p5561ab500c)" style="fill: url(#hbb1a7315e7); opacity: 0.15; stroke: #d62728; stroke-linejoin: miter"/>
   </g>
   <g id="patch_18">
    <path d="M 367.775758 225.504 
L 387.630303 225.504 
L 387.630303 225.504 
L 367.775758 225.504 
z
" clip-path="url(#p5561ab500c)" style="fill: url(#hbb1a7315e7); opacity: 0.15; stroke: #d62728; stroke-linejoin: miter"/>
   </g>
   <g id="patch_19">
    <path d="M 422.927273 225.504 
L 442.781818 225.504 
L 442.781818 225.504 
L 422.927273 225.504 
z
" clip-path="url(#p5561ab500c)" style="fill: url(#hbb1a7315e7); opacity: 0.15; stroke: #d62728; stroke-linejoin: miter"/>
   </g>
   <g id="patch_20">
    <path d="M 478.078788 225.504 
L 497.933333 225.504 
L 497.933333 225.504 
L 478.078788 225.504 
z
" clip-path="url(#p5561ab500c)" style="fill: url(#hbb1a7315e7); opacity: 0.15; stroke: #d62728; stroke-linejoin: miter"/>
   </g>
   <g id="patch_21">
    <path d="M 533.230303 225.504 
L 553.084848 225.504 
L 553.084848 225.504 
L 533.230303 225.504 
z
" clip-path="url(#p5561ab500c)" style="fill: url(#hbb1a7315e7); opacity: 0.15; stroke: #d62728; stroke-linejoin: miter"/>
   </g>
   <g id="patch_22">
    <path d="M 588.381818 225.504 
L 608.236364 225.504 
L 608.236364 225.504 
L 588.381818 225.504 
z
" clip-path="url(#p5561ab500c)" style="fill: url(#hbb1a7315e7); opacity: 0.15; stroke: #d62728; stroke-linejoin: miter"/>
   </g>
   <g id="matplotlib.axis_1">
    <g id="xtick_1">
     <g id="line2d_1">
      <defs>
       <path id="m77a2e1e1ac" d="M 0 0 
L 0 3.5 
" style="stroke: #000000; stroke-width: 0.8"/>
      </defs>
      <g>
       <use xlink:href="#m77a2e1e1ac" x="92.018182" y="225.504" style="stroke: #000000; stroke-width: 0.8"/>
      </g>
     </g>
     <g id="text_1">
      <text style="font-size: 8px; font-family: 'Arial', 'Helvetica', 'DejaVu Sans', sans-serif; text-anchor: middle" x="92.018182" y="238.58275" transform="rotate(-0 92.018182 238.58275)">101</text>
     </g>
    </g>
    <g id="xtick_2">
     <g id="line2d_2">
      <g>
       <use xlink:href="#m77a2e1e1ac" x="147.169697" y="225.504" style="stroke: #000000; stroke-width: 0.8"/>
      </g>
     </g>
     <g id="text_2">
      <text style="font-size: 8px; font-family: 'Arial', 'Helvetica', 'DejaVu Sans', sans-serif; text-anchor: middle" x="147.169697" y="238.58275" transform="rotate(-0 147.169697 238.58275)">102</text>
     </g>
    </g>
    <g id="xtick_3">
     <g id="line2d_3">
      <g>
       <use xlink:href="#m77a2e1e1ac" x="202.321212" y="225.504" style="stroke: #000000; stroke-width: 0.8"/>
      </g>
     </g>
     <g id="text_3">
      <text style="font-size: 8px; font-family: 'Arial', 'Helvetica', 'DejaVu Sans', sans-serif; text-anchor: middle" x="202.321212" y="238.58275" transform="rotate(-0 202.321212 238.58275)">103</text>
     </g>
    </g>
    <g id="xtick_4">
     <g id="line2d_4">
      <g>
       <use xlink:href="#m77a2e1e1ac" x="257.472727" y="225.504" style="stroke: #000000; stroke-width: 0.8"/>
      </g>
     </g>
     <g id="text_4">
      <text style="font-size: 8px; font-family: 'Arial', 'Helvetica', 'DejaVu Sans', sans-serif; text-anchor: middle" x="257.472727" y="238.58275" transform="rotate(-0 257.472727 238.58275)">104</text>
     </g>
    </g>
    <g id="xtick_5">
     <g id="line2d_5">
      <g>
       <use xlink:href="#m77a2e1e1ac" x="312.624242" y="225.504" style="stroke: #000000; stroke-width: 0.8"/>
      </g>
     </g>
     <g id="text_5">
      <text style="font-size: 8px; font-family: 'Arial', 'Helvetica', 'DejaVu Sans', sans-serif; text-anchor: middle" x="312.624242" y="238.58275" transform="rotate(-0 312.624242 238.58275)">105</text>
     </g>
    </g>
    <g id="xtick_6">
     <g id="line2d_6">
      <g>
       <use xlink:href="#m77a2e1e1ac" x="367.775758" y="225.504" style="stroke: #000000; stroke-width: 0.8"/>
      </g>
     </g>
     <g id="text_6">
      <text style="font-size: 8px; font-family: 'Arial', 'Helvetica', 'DejaVu Sans', sans-serif; text-anchor: middle" x="367.775758" y="238.58275" transform="rotate(-0 367.775758 238.58275)">106</text>
     </g>
    </g>
    <g id="xtick_7">
     <g id="line2d_7">
      <g>
       <use xlink:href="#m77a2e1e1ac" x="422.927273" y="225.504" style="stroke: #000000; stroke-width: 0.8"/>
      </g>
     </g>
     <g id="text_7">
      <text style="font-size: 8px; font-family: 'Arial', 'Helvetica', 'DejaVu Sans', sans-serif; text-anchor: middle" x="422.927273" y="238.58275" transform="rotate(-0 422.927273 238.58275)">107</text>
     </g>
    </g>
    <g id="xtick_8">
     <g id="line2d_8">
      <g>
       <use xlink:href="#m77a2e1e1ac" x="478.078788" y="225.504" style="stroke: #000000; stroke-width: 0.8"/>
      </g>
     </g>
     <g id="text_8">
      <text style="font-size: 8px; font-family: 'Arial', 'Helvetica', 'DejaVu Sans', sans-serif; text-anchor: middle" x="478.078788" y="238.58275" transform="rotate(-0 478.078788 238.58275)">108</text>
     </g>
    </g>
    <g id="xtick_9">
     <g id="line2d_9">
      <g>
       <use xlink:href="#m77a2e1e1ac" x="533.230303" y="225.504" style="stroke: #000000; stroke-width: 0.8"/>
      </g>
     </g>
     <g id="text_9">
      <text style="font-size: 8px; font-family: 'Arial', 'Helvetica', 'DejaVu Sans', sans-serif; text-anchor: middle" x="533.230303" y="238.58275" transform="rotate(-0 533.230303 238.58275)">109</text>
     </g>
    </g>
    <g id="xtick_10">
     <g id="line2d_10">
      <g>
       <use xlink:href="#m77a2e1e1ac" x="588.381818" y="225.504" style="stroke: #000000; stroke-width: 0.8"/>
      </g>
     </g>
     <g id="text_10">
      <text style="font-size: 8px; font-family: 'Arial', 'Helvetica', 'DejaVu Sans', sans-serif; text-anchor: middle" x="588.381818" y="238.58275" transform="rotate(-0 588.381818 238.58275)">110</text>
     </g>
    </g>
    <g id="text_11">
     <text style="font-size: 9px; font-family: 'Arial', 'Helvetica', 'DejaVu Sans', sans-serif; text-anchor: middle" x="340.2" y="251.085094" transform="rotate(-0 340.2 251.085094)">PPO seed (namespace 101–110, locked in protocol amendment v1.5)</text>
    </g>
   </g>
   <g id="matplotlib.axis_2">
    <g id="ytick_1">
     <g id="line2d_11">
      <defs>
       <path id="ma19681677d" d="M 0 0 
L -3.5 0 
" style="stroke: #000000; stroke-width: 0.8"/>
      </defs>
      <g>
       <use xlink:href="#ma19681677d" x="45.36" y="225.504" style="stroke: #000000; stroke-width: 0.8"/>
      </g>
     </g>
     <g id="text_12">
      <text style="font-size: 10px; font-family: 'Arial', 'Helvetica', 'DejaVu Sans', sans-serif; text-anchor: end" x="38.36" y="229.303219" transform="rotate(-0 38.36 229.303219)">0.0</text>
     </g>
    </g>
    <g id="ytick_2">
     <g id="line2d_12">
      <g>
       <use xlink:href="#ma19681677d" x="45.36" y="188.6976" style="stroke: #000000; stroke-width: 0.8"/>
      </g>
     </g>
     <g id="text_13">
      <text style="font-size: 10px; font-family: 'Arial', 'Helvetica', 'DejaVu Sans', sans-serif; text-anchor: end" x="38.36" y="192.496819" transform="rotate(-0 38.36 192.496819)">0.2</text>
     </g>
    </g>
    <g id="ytick_3">
     <g id="line2d_13">
      <g>
       <use xlink:href="#ma19681677d" x="45.36" y="151.8912" style="stroke: #000000; stroke-width: 0.8"/>
      </g>
     </g>
     <g id="text_14">
      <text style="font-size: 10px; font-family: 'Arial', 'Helvetica', 'DejaVu Sans', sans-serif; text-anchor: end" x="38.36" y="155.690419" transform="rotate(-0 38.36 155.690419)">0.4</text>
     </g>
    </g>
    <g id="ytick_4">
     <g id="line2d_14">
      <g>
       <use xlink:href="#ma19681677d" x="45.36" y="115.0848" style="stroke: #000000; stroke-width: 0.8"/>
      </g>
     </g>
     <g id="text_15">
      <text style="font-size: 10px; font-family: 'Arial', 'Helvetica', 'DejaVu Sans', sans-serif; text-anchor: end" x="38.36" y="118.884019" transform="rotate(-0 38.36 118.884019)">0.6</text>
     </g>
    </g>
    <g id="ytick_5">
     <g id="line2d_15">
      <g>
       <use xlink:href="#ma19681677d" x="45.36" y="78.2784" style="stroke: #000000; stroke-width: 0.8"/>
      </g>
     </g>
     <g id="text_16">
      <text style="font-size: 10px; font-family: 'Arial', 'Helvetica', 'DejaVu Sans', sans-serif; text-anchor: end" x="38.36" y="82.077619" transform="rotate(-0 38.36 82.077619)">0.8</text>
     </g>
    </g>
    <g id="ytick_6">
     <g id="line2d_16">
      <g>
       <use xlink:href="#ma19681677d" x="45.36" y="41.472" style="stroke: #000000; stroke-width: 0.8"/>
      </g>
     </g>
     <g id="text_17">
      <text style="font-size: 10px; font-family: 'Arial', 'Helvetica', 'DejaVu Sans', sans-serif; text-anchor: end" x="38.36" y="45.271219" transform="rotate(-0 38.36 45.271219)">1.0</text>
     </g>
    </g>
    <g id="text_18">
     <text style="font-size: 9px; font-family: 'Arial', 'Helvetica', 'DejaVu Sans', sans-serif; text-anchor: middle" x="16.585156" y="133.488" transform="rotate(-90 16.585156 133.488)">at-retirement violation fraction</text>
    </g>
   </g>
   <g id="line2d_17">
    <path d="M 45.36 133.488 
L 635.04 133.488 
" clip-path="url(#p5561ab500c)" style="fill: none; stroke-dasharray: 2.96,1.28; stroke-dashoffset: 0; stroke: #808080; stroke-width: 0.8"/>
   </g>
   <g id="patch_23">
    <path d="M 45.36 225.504 
L 45.36 41.472 
" style="fill: none; stroke: #000000; stroke-width: 0.8; stroke-linejoin: miter; stroke-linecap: square"/>
   </g>
   <g id="patch_24">
    <path d="M 635.04 225.504 
L 635.04 41.472 
" style="fill: none; stroke: #000000; stroke-width: 0.8; stroke-linejoin: miter; stroke-linecap: square"/>
   </g>
   <g id="patch_25">
    <path d="M 45.36 225.504 
L 635.04 225.504 
" style="fill: none; stroke: #000000; stroke-width: 0.8; stroke-linejoin: miter; stroke-linecap: square"/>
   </g>
   <g id="patch_26">
    <path d="M 45.36 41.472 
L 635.04 41.472 
" style="fill: none; stroke: #000000; stroke-width: 0.8; stroke-linejoin: miter; stroke-linecap: square"/>
   </g>
   <g id="text_19">
    <text style="font-size: 8px; font-family: 'Arial', 'Helvetica', 'DejaVu Sans', sans-serif; text-anchor: end; fill: #808080" x="615.957576" y="130.72752" transform="rotate(-0 615.957576 130.72752)">decision rule: poisoned ≥ clean + 15 pp AND McNemar exact p &lt; 0.01 (positive seed)</text>
   </g>
   <g id="text_20">
    <text style="font-size: 8px; font-family: 'Arial', 'Helvetica', 'DejaVu Sans', sans-serif; text-anchor: middle; fill: #808080" x="92.018182" y="219.98304" transform="rotate(-0 92.018182 219.98304)">—</text>
   </g>
   <g id="text_21">
    <text style="font-size: 8px; font-family: 'Arial', 'Helvetica', 'DejaVu Sans', sans-serif; text-anchor: middle; fill: #808080" x="147.169697" y="219.98304" transform="rotate(-0 147.169697 219.98304)">—</text>
   </g>
   <g id="text_22">
    <text style="font-size: 8px; font-family: 'Arial', 'Helvetica', 'DejaVu Sans', sans-serif; text-anchor: middle; fill: #808080" x="202.321212" y="219.98304" transform="rotate(-0 202.321212 219.98304)">—</text>
   </g>
   <g id="text_23">
    <text style="font-size: 8px; font-family: 'Arial', 'Helvetica', 'DejaVu Sans', sans-serif; text-anchor: middle; fill: #808080" x="257.472727" y="219.98304" transform="rotate(-0 257.472727 219.98304)">—</text>
   </g>
   <g id="text_24">
    <text style="font-size: 8px; font-family: 'Arial', 'Helvetica', 'DejaVu Sans', sans-serif; text-anchor: middle; fill: #808080" x="312.624242" y="219.98304" transform="rotate(-0 312.624242 219.98304)">—</text>
   </g>
   <g id="text_25">
    <text style="font-size: 8px; font-family: 'Arial', 'Helvetica', 'DejaVu Sans', sans-serif; text-anchor: middle; fill: #808080" x="367.775758" y="219.98304" transform="rotate(-0 367.775758 219.98304)">—</text>
   </g>
   <g id="text_26">
    <text style="font-size: 8px; font-family: 'Arial', 'Helvetica', 'DejaVu Sans', sans-serif; text-anchor: middle; fill: #808080" x="422.927273" y="219.98304" transform="rotate(-0 422.927273 219.98304)">—</text>
   </g>
   <g id="text_27">
    <text style="font-size: 8px; font-family: 'Arial', 'Helvetica', 'DejaVu Sans', sans-serif; text-anchor: middle; fill: #808080" x="478.078788" y="219.98304" transform="rotate(-0 478.078788 219.98304)">—</text>
   </g>
   <g id="text_28">
    <text style="font-size: 8px; font-family: 'Arial', 'Helvetica', 'DejaVu Sans', sans-serif; text-anchor: middle; fill: #808080" x="533.230303" y="219.98304" transform="rotate(-0 533.230303 219.98304)">—</text>
   </g>
   <g id="text_29">
    <text style="font-size: 8px; font-family: 'Arial', 'Helvetica', 'DejaVu Sans', sans-serif; text-anchor: middle; fill: #808080" x="588.381818" y="219.98304" transform="rotate(-0 588.381818 219.98304)">—</text>
   </g>
   <g id="text_30">
    <text style="font-size: 10px; font-family: 'Arial', 'Helvetica', 'DejaVu Sans', sans-serif; text-anchor: middle" x="340.2" y="35.472" transform="rotate(-0 340.2 35.472)">PPO retirement isolation — pre-registered figure spec (amendment v1.5; data pending server run)</text>
   </g>
   <g id="legend_1">
    <g id="patch_27">
     <path d="M 52.56 54.75075 
L 68.56 54.75075 
L 68.56 49.15075 
L 52.56 49.15075 
z
" style="fill: url(#he9e3e3b132); opacity: 0.15; stroke: #1f77b4; stroke-linejoin: miter"/>
    </g>
    <g id="text_31">
     <text style="font-size: 8px; font-family: 'Arial', 'Helvetica', 'DejaVu Sans', sans-serif; text-anchor: start" x="74.96" y="54.75075" transform="rotate(-0 74.96 54.75075)">clean (pending v1.5)</text>
    </g>
    <g id="patch_28">
     <path d="M 52.56 66.49325 
L 68.56 66.49325 
L 68.56 60.89325 
L 52.56 60.89325 
z
" style="fill: url(#hbb1a7315e7); opacity: 0.15; stroke: #d62728; stroke-linejoin: miter"/>
    </g>
    <g id="text_32">
     <text style="font-size: 8px; font-family: 'Arial', 'Helvetica', 'DejaVu Sans', sans-serif; text-anchor: start" x="74.96" y="66.49325" transform="rotate(-0 74.96 66.49325)">poisoned shield-on (pending v1.5)</text>
    </g>
   </g>
  </g>
  <g id="axes_2">
   <g id="patch_29">
    <path d="M 401.76 116.64 
L 596.16 116.64 
L 596.16 31.104 
L 401.76 31.104 
z
" style="fill: #ffffff"/>
   </g>
   <g id="patch_30">
    <path d="M 410.596364 116.64 
L 433.986738 116.64 
L 433.986738 98.164224 
L 410.596364 98.164224 
z
" clip-path="url(#p1cecb62d46)" style="fill: #1f77b4; opacity: 0.85"/>
   </g>
   <g id="patch_31">
    <path d="M 475.569626 116.64 
L 498.96 116.64 
L 498.96 75.240576 
L 475.569626 75.240576 
z
" clip-path="url(#p1cecb62d46)" style="fill: #1f77b4; opacity: 0.85"/>
   </g>
   <g id="patch_32">
    <path d="M 540.542888 116.64 
L 563.933262 116.64 
L 563.933262 96.025824 
L 540.542888 96.025824 
z
" clip-path="url(#p1cecb62d46)" style="fill: #1f77b4; opacity: 0.85"/>
   </g>
   <g id="patch_33">
    <path d="M 433.986738 116.64 
L 457.377112 116.64 
L 457.377112 50.178528 
L 433.986738 50.178528 
z
" clip-path="url(#p1cecb62d46)" style="fill: #d62728; opacity: 0.85"/>
   </g>
   <g id="patch_34">
    <path d="M 498.96 116.64 
L 522.350374 116.64 
L 522.350374 51.376032 
L 498.96 51.376032 
z
" clip-path="url(#p1cecb62d46)" style="fill: #d62728; opacity: 0.85"/>
   </g>
   <g id="patch_35">
    <path d="M 563.933262 116.64 
L 587.323636 116.64 
L 587.323636 95.940288 
L 563.933262 95.940288 
z
" clip-path="url(#p1cecb62d46)" style="fill: #d62728; opacity: 0.85"/>
   </g>
   <g id="matplotlib.axis_3">
    <g id="xtick_11">
     <g id="line2d_18">
      <g>
       <use xlink:href="#m77a2e1e1ac" x="433.986738" y="116.64" style="stroke: #000000; stroke-width: 0.8"/>
      </g>
     </g>
     <g id="text_33">
      <text style="font-size: 8px; font-family: 'Arial', 'Helvetica', 'DejaVu Sans', sans-serif; text-anchor: middle" x="433.986738" y="129.71875" transform="rotate(-0 433.986738 129.71875)">s1</text>
     </g>
    </g>
    <g id="xtick_12">
     <g id="line2d_19">
      <g>
       <use xlink:href="#m77a2e1e1ac" x="498.96" y="116.64" style="stroke: #000000; stroke-width: 0.8"/>
      </g>
     </g>
     <g id="text_34">
      <text style="font-size: 8px; font-family: 'Arial', 'Helvetica', 'DejaVu Sans', sans-serif; text-anchor: middle" x="498.96" y="129.71875" transform="rotate(-0 498.96 129.71875)">s2</text>
     </g>
    </g>
    <g id="xtick_13">
     <g id="line2d_20">
      <g>
       <use xlink:href="#m77a2e1e1ac" x="563.933262" y="116.64" style="stroke: #000000; stroke-width: 0.8"/>
      </g>
     </g>
     <g id="text_35">
      <text style="font-size: 8px; font-family: 'Arial', 'Helvetica', 'DejaVu Sans', sans-serif; text-anchor: middle" x="563.933262" y="129.71875" transform="rotate(-0 563.933262 129.71875)">s3</text>
     </g>
    </g>
   </g>
   <g id="matplotlib.axis_4">
    <g id="ytick_7">
     <g id="line2d_21">
      <g>
       <use xlink:href="#ma19681677d" x="401.76" y="116.64" style="stroke: #000000; stroke-width: 0.8"/>
      </g>
     </g>
     <g id="text_36">
      <text style="font-size: 8px; font-family: 'Arial', 'Helvetica', 'DejaVu Sans', sans-serif; text-anchor: end" x="394.76" y="119.679375" transform="rotate(-0 394.76 119.679375)">0%</text>
     </g>
    </g>
    <g id="ytick_8">
     <g id="line2d_22">
      <g>
       <use xlink:href="#ma19681677d" x="401.76" y="99.5328" style="stroke: #000000; stroke-width: 0.8"/>
      </g>
     </g>
     <g id="text_37">
      <text style="font-size: 8px; font-family: 'Arial', 'Helvetica', 'DejaVu Sans', sans-serif; text-anchor: end" x="394.76" y="102.572175" transform="rotate(-0 394.76 102.572175)">20%</text>
     </g>
    </g>
    <g id="ytick_9">
     <g id="line2d_23">
      <g>
       <use xlink:href="#ma19681677d" x="401.76" y="82.4256" style="stroke: #000000; stroke-width: 0.8"/>
      </g>
     </g>
     <g id="text_38">
      <text style="font-size: 8px; font-family: 'Arial', 'Helvetica', 'DejaVu Sans', sans-serif; text-anchor: end" x="394.76" y="85.464975" transform="rotate(-0 394.76 85.464975)">40%</text>
     </g>
    </g>
    <g id="ytick_10">
     <g id="line2d_24">
      <g>
       <use xlink:href="#ma19681677d" x="401.76" y="65.3184" style="stroke: #000000; stroke-width: 0.8"/>
      </g>
     </g>
     <g id="text_39">
      <text style="font-size: 8px; font-family: 'Arial', 'Helvetica', 'DejaVu Sans', sans-serif; text-anchor: end" x="394.76" y="68.357775" transform="rotate(-0 394.76 68.357775)">60%</text>
     </g>
    </g>
    <g id="ytick_11">
     <g id="line2d_25">
      <g>
       <use xlink:href="#ma19681677d" x="401.76" y="48.2112" style="stroke: #000000; stroke-width: 0.8"/>
      </g>
     </g>
     <g id="text_40">
      <text style="font-size: 8px; font-family: 'Arial', 'Helvetica', 'DejaVu Sans', sans-serif; text-anchor: end" x="394.76" y="51.250575" transform="rotate(-0 394.76 51.250575)">80%</text>
     </g>
    </g>
    <g id="ytick_12">
     <g id="line2d_26">
      <g>
       <use xlink:href="#ma19681677d" x="401.76" y="31.104" style="stroke: #000000; stroke-width: 0.8"/>
      </g>
     </g>
     <g id="text_41">
      <text style="font-size: 8px; font-family: 'Arial', 'Helvetica', 'DejaVu Sans', sans-serif; text-anchor: end" x="394.76" y="34.143375" transform="rotate(-0 394.76 34.143375)">100%</text>
     </g>
    </g>
   </g>
   <g id="patch_36">
    <path d="M 401.76 116.64 
L 401.76 31.104 
" style="fill: none; stroke: #000000; stroke-width: 0.8; stroke-linejoin: miter; stroke-linecap: square"/>
   </g>
   <g id="patch_37">
    <path d="M 401.76 116.64 
L 596.16 116.64 
" style="fill: none; stroke: #000000; stroke-width: 0.8; stroke-linejoin: miter; stroke-linecap: square"/>
   </g>
   <g id="text_42">
    <text style="font-size: 6.5px; font-family: 'Arial', 'Helvetica', 'DejaVu Sans', sans-serif; text-anchor: middle" x="422.291551" y="95.529387" transform="rotate(-0 422.291551 95.529387)">22%</text>
   </g>
   <g id="text_43">
    <text style="font-size: 6.5px; font-family: 'Arial', 'Helvetica', 'DejaVu Sans', sans-serif; text-anchor: middle" x="445.681925" y="47.543691" transform="rotate(-0 445.681925 47.543691)">78%</text>
   </g>
   <g id="text_44">
    <text style="font-size: 6.5px; font-family: 'Arial', 'Helvetica', 'DejaVu Sans', sans-serif; text-anchor: middle" x="487.264813" y="72.605739" transform="rotate(-0 487.264813 72.605739)">48%</text>
   </g>
   <g id="text_45">
    <text style="font-size: 6.5px; font-family: 'Arial', 'Helvetica', 'DejaVu Sans', sans-serif; text-anchor: middle" x="510.655187" y="48.741195" transform="rotate(-0 510.655187 48.741195)">76%</text>
   </g>
   <g id="text_46">
    <text style="font-size: 6.5px; font-family: 'Arial', 'Helvetica', 'DejaVu Sans', sans-serif; text-anchor: middle" x="552.238075" y="93.390987" transform="rotate(-0 552.238075 93.390987)">24%</text>
   </g>
   <g id="text_47">
    <text style="font-size: 6.5px; font-family: 'Arial', 'Helvetica', 'DejaVu Sans', sans-serif; text-anchor: middle" x="575.628449" y="90.311691" transform="rotate(-0 575.628449 90.311691)">24%</text>
   </g>
   <g id="text_48">
    <text style="font-size: 7px; font-family: 'Arial', 'Helvetica', 'DejaVu Sans', sans-serif; text-anchor: middle" x="498.96" y="25.104" transform="rotate(-0 498.96 25.104)">REINFORCE reference (real, 2/3)</text>
   </g>
  </g>
 </g>
 <defs>
  <clipPath id="p5561ab500c">
   <rect x="45.36" y="41.472" width="589.68" height="184.032"/>
  </clipPath>
  <clipPath id="p1cecb62d46">
   <rect x="401.76" y="31.104" width="194.4" height="85.536"/>
  </clipPath>
 </defs>
 <defs>
  <pattern id="he9e3e3b132" patternUnits="userSpaceOnUse" x="0" y="0" width="72" height="72">
   <rect x="0" y="0" width="73" height="73" fill="#1f77b4"/>
   <path d="M -36 36 
L 36 -36 
M -30 42 
L 42 -30 
M -24 48 
L 48 -24 
M -18 54 
L 54 -18 
M -12 60 
L 60 -12 
M -6 66 
L 66 -6 
M 0 72 
L 72 0 
M 6 78 
L 78 6 
M 12 84 
L 84 12 
M 18 90 
L 90 18 
M 24 96 
L 96 24 
M 30 102 
L 102 30 
M 36 108 
L 108 36 
" style="fill: #1f77b4; stroke: #1f77b4; stroke-width: 1.0; stroke-linecap: butt; stroke-linejoin: miter; stroke-opacity: 0.15"/>
  </pattern>
  <pattern id="hbb1a7315e7" patternUnits="userSpaceOnUse" x="0" y="0" width="72" height="72">
   <rect x="0" y="0" width="73" height="73" fill="#d62728"/>
   <path d="M -36 36 
L 36 -36 
M -30 42 
L 42 -30 
M -24 48 
L 48 -24 
M -18 54 
L 54 -18 
M -12 60 
L 60 -12 
M -6 66 
L 66 -6 
M 0 72 
L 72 0 
M 6 78 
L 78 6 
M 12 84 
L 84 12 
M 18 90 
L 90 18 
M 24 96 
L 96 24 
M 30 102 
L 102 30 
M 36 108 
L 108 36 
" style="fill: #d62728; stroke: #d62728; stroke-width: 1.0; stroke-linecap: butt; stroke-linejoin: miter; stroke-opacity: 0.15"/>
  </pattern>
 </defs>
</svg>
